<svg width="17" height="18" viewBox="0 0 17 18" fill="none" xmlns="http://www.w3.org/2000/svg">
<path d="M8.2714 15.9548C4.32611 15.9548 1.11401 12.5805 1.11401 8.4359C1.11401 4.29133 4.32611 0.916992 8.2714 0.916992C12.2167 0.916992 15.4288 4.29133 15.4288 8.4359C15.4288 12.5805 12.2167 15.9548 8.2714 15.9548ZM8.2714 2.01732C4.8987 2.01732 2.16144 4.90018 2.16144 8.4359C2.16144 11.9716 4.8987 14.8545 8.2714 14.8545C11.6441 14.8545 14.3814 11.9716 14.3814 8.4359C14.3814 4.90018 11.6441 2.01732 8.2714 2.01732Z" fill="#8E8EA9"/>
<path d="M15.6033 16.6884C15.4707 16.6884 15.338 16.6371 15.2333 16.527L13.8367 15.0599C13.6342 14.8472 13.6342 14.4951 13.8367 14.2824C14.0392 14.0696 14.3744 14.0696 14.5769 14.2824L15.9734 15.7495C16.1759 15.9622 16.1759 16.3143 15.9734 16.527C15.8687 16.6371 15.736 16.6884 15.6033 16.6884Z" fill="#8E8EA9"/>
</svg>
